# xmcd CD database file
#
# Track frame offsets:
#	150
#	16116
#	35952
#	51918
#
# Disc length: 954 seconds
#
# Revision: 0
# Processed by: cddbd v1.5.1PL2 Copyright (c) Steve Scherf et al.
# Submitted via: CDex 1.51
#
DISCID=2e03b804
DTITLE=夏川純 - 姫TRANCEアニメPARTY〜夏川純〜
DYEAR=2005
DGENRE=Trance
TTITLE0=CAT'S EYE
TTITLE1=ラムのラブソング
TTITLE2=CAT'S EYE（INSTRUMENTAL）
TTITLE3=ラムのラブソング（INSTRUMENTAL）
EXTD=YEAR: 2005
EXTT0=
EXTT1=
EXTT2=
EXTT3=
PLAYORDER=
